<?xml version="1.0" encoding="UTF-8" standalone="no"?>
<svg
   xmlns:dc="http://purl.org/dc/elements/1.1/"
   xmlns:cc="http://creativecommons.org/ns#"
   xmlns:rdf="http://www.w3.org/1999/02/22-rdf-syntax-ns#"
   xmlns:svg="http://www.w3.org/2000/svg"
   xmlns="http://www.w3.org/2000/svg"
   xmlns:sodipodi="http://sodipodi.sourceforge.net/DTD/sodipodi-0.dtd"
   xmlns:inkscape="http://www.inkscape.org/namespaces/inkscape"
   width="1000"
   height="355.87836"
   viewBox="0 0 1000 355.87836"
   version="1.1"
   id="svg8"
   sodipodi:docname="group.svg"
   inkscape:version="0.92.4 (5da689c313, 2019-01-14)">
  <metadata
     id="metadata14">
    <rdf:RDF>
      <cc:Work
         rdf:about="">
        <dc:format>image/svg+xml</dc:format>
        <dc:type
           rdf:resource="http://purl.org/dc/dcmitype/StillImage" />
        <dc:title></dc:title>
      </cc:Work>
    </rdf:RDF>
  </metadata>
  <defs
     id="defs12">
	
	
	
	
	
	
	
</defs>
  <sodipodi:namedview
     pagecolor="#ffffff"
     bordercolor="#111111"
     borderopacity="1"
     objecttolerance="10"
     gridtolerance="10"
     guidetolerance="10"
     inkscape:pageopacity="0"
     inkscape:pageshadow="2"
     inkscape:window-width="1920"
     inkscape:window-height="1017"
     id="namedview10"
     showgrid="false"
     fit-margin-top="0"
     fit-margin-left="0"
     fit-margin-right="0"
     fit-margin-bottom="0"
     inkscape:zoom="0.5"
     inkscape:cx="841.45201"
     inkscape:cy="506.94743"
     inkscape:window-x="1912"
     inkscape:window-y="-8"
     inkscape:window-maximized="1"
     inkscape:current-layer="svg8"
     showguides="true"
     inkscape:guide-bbox="true">
    <inkscape:grid
       type="xygrid"
       id="grid29"
       originx="23"
       originy="272.84755" />
    <sodipodi:guide
       position="594.20684,261.12618"
       orientation="0,1"
       id="guide986"
       inkscape:locked="false" />
  </sodipodi:namedview>
  <path
     style="fill:#000000;stroke-width:0.90924048"
     d="m 587.91323,0 h 87.96606 V 27.4671 H 649.80798 V 94.75219 H 614.09589 V 27.4671 h -26.18266 z"
     id="polygon951"
     inkscape:connector-curvature="0"
     sodipodi:nodetypes="ccccccccc" />
  <path
     style="fill:#000000;stroke-width:0.90924048"
     d="M 726.27684,37.44476 705.84967,94.75219 H 669.46578 L 706.10063,0 h 40.32749 l 36.67599,94.75219 h -36.17929 z"
     id="polygon953"
     inkscape:connector-curvature="0"
     sodipodi:nodetypes="cccccccc" />
  <path
     sodipodi:nodetypes="cccccccc"
     inkscape:connector-curvature="0"
     id="path984"
     d="M 537.37957,37.44476 516.9524,94.75219 H 480.56851 L 517.20336,0 h 40.32749 l 36.67599,94.75219 h -36.17929 z"
     style="fill:#000000;stroke-width:0.90924048" />
  <rect
     style="opacity:1;fill:#ab1e40;fill-opacity:1;stroke:none;stroke-width:8.84645557;stroke-miterlimit:4;stroke-dasharray:none;stroke-opacity:1"
     id="rect922"
     width="347.96057"
     height="347.96057"
     x="0"
     y="2.4697068"
     rx="64.874008"
     ry="64.874008" />
  <path
     inkscape:connector-curvature="0"
     id="path306"
     style="fill:#000000;fill-opacity:1;fill-rule:nonzero;stroke:none;stroke-width:9.41472816"
     d="m 958.10416,246.70227 c 0.52763,-36.11477 -29.13848,-66.60915 -65.46061,-67.29649 -37.17868,-0.70657 -68.78397,29.76003 -69.72544,67.22129 -0.88464,35.0698 30.52252,66.901 66.49622,67.38118 38.20501,0.50891 68.13442,-28.81845 68.68983,-67.30598 m 14.18804,58.78567 c 7.48469,7.31525 14.96006,14.68697 22.52001,21.98338 4.91447,4.75444 6.27959,10.488 4.34021,16.83345 -2.02412,6.64684 -6.91046,10.42216 -13.73603,11.41075 -5.6395,0.81906 -10.28091,-1.52522 -14.1975,-5.37585 -6.2607,-6.15725 -12.5592,-12.26735 -18.5752,-18.65054 -2.46666,-2.62672 -4.09544,-3.05981 -7.40944,-0.96974 -17.31369,10.93047 -36.31258,16.16509 -56.83674,15.94853 -47.07364,-0.50885 -88.6303,-36.83042 -96.49153,-83.36743 -9.57484,-56.6578 31.94414,-106.67832 83.23559,-114.98207 54.01236,-8.74631 105.7275,28.00888 114.12544,81.90818 3.98238,25.56101 -0.67758,49.49318 -14.78116,71.4013 -0.65879,1.01682 -1.20506,2.10885 -2.19365,3.86004" />
  <path
     inkscape:connector-curvature="0"
     id="path310"
     style="fill:#000000;fill-opacity:1;fill-rule:nonzero;stroke:none;stroke-width:9.41472816"
     d="m 431.95453,248.18794 c 0.49905,13.11475 1.74171,25.95645 5.83712,38.44036 6.35494,19.35669 20.22285,29.40225 39.93727,31.39819 7.96487,0.80966 16.15569,0.44232 24.14882,-0.35799 13.15235,-1.3275 23.32025,-8.58625 32.75382,-17.45491 3.33281,-3.14456 8.14375,-5.78071 12.58747,-6.4209 5.88425,-0.83779 10.64804,2.74912 13.39717,8.32262 2.8809,5.83713 1.93003,11.17529 -2.09004,16.09923 -10.69513,13.1241 -24.65716,21.10785 -40.75636,25.54213 -23.11319,6.37381 -46.14161,5.86541 -68.77461,-2.06181 -20.2417,-7.09872 -34.41083,-21.14551 -41.53783,-41.16117 -12.27681,-34.49561 -12.70985,-69.54659 -0.0374,-103.97632 11.09057,-30.1271 34.66505,-44.46573 65.73365,-48.10926 16.63582,-1.94882 32.92332,-0.91372 48.82477,4.34965 13.46306,4.45316 24.83604,12.08853 33.53529,23.41442 3.27628,4.28372 5.68644,8.96281 4.37781,14.61166 -2.66434,11.51425 -16.42872,15.5155 -25.32563,7.39047 -4.26487,-3.89763 -8.20963,-8.23779 -12.86047,-11.60829 -17.06897,-12.38037 -46.51824,-13.25597 -64.44384,-2.14656 -13.76437,8.52972 -19.62032,22.05873 -22.3506,37.13173 -1.58168,8.75566 -2.00531,17.72788 -2.95619,26.59657" />
  <path
     inkscape:connector-curvature="0"
     id="path314"
     style="fill:#000000;fill-opacity:1;fill-rule:nonzero;stroke:none;stroke-width:9.41472816"
     d="m 622.39188,313.67681 h 7.01397 c 20.37353,0 40.73754,-0.0655 61.11102,0.0206 7.7295,0.0295 12.92644,3.63415 15.07297,9.97971 2.09953,6.15723 0.61209,12.67214 -4.57553,16.5887 -2.35369,1.78878 -5.65825,3.23866 -8.53916,3.26697 -29.31745,0.26333 -58.64436,0.36733 -87.96184,0.15098 -9.06638,-0.0749 -14.75288,-6.58091 -14.76229,-15.78857 -0.0475,-53.90868 -0.0475,-107.81741 0,-161.71674 0,-9.80075 6.99516,-16.79594 16.40045,-16.72057 9.40534,0.0846 16.2216,7.1081 16.2216,16.97475 0.0366,46.71587 0.0206,93.42238 0.0206,140.1288 z" />
  <path
     inkscape:connector-curvature="0"
     id="path334"
     style="fill:#000000;fill-opacity:1;fill-rule:nonzero;stroke:none;stroke-width:9.41472816"
     d="m 763.32282,273.44398 c 0,17.38892 0.084,34.77798 -0.0295,52.17634 -0.084,12.22981 -8.04013,19.50741 -19.32839,17.96334 -5.97831,-0.81906 -11.5895,-5.79947 -12.8511,-11.65544 -0.48018,-2.20306 -0.72499,-4.519 -0.72499,-6.78797 -0.0375,-34.07195 -0.0265,-68.15321 -0.0265,-102.22513 0,-6.7504 1.26162,-12.87932 7.54122,-16.89004 10.13969,-6.45853 23.07554,-0.79093 25.00551,11.06226 0.33929,2.07128 0.44229,4.19897 0.44229,6.2985 0.0375,16.69232 0.0206,33.37523 0.0206,50.05814 z" />
  <path
     inkscape:connector-curvature="0"
     id="path338"
     style="fill:#ab1e40;fill-opacity:1;fill-rule:nonzero;stroke:none;stroke-width:9.41472816"
     d="m 768.17707,157.16638 c 6.42085,6.42084 6.42085,16.86181 0,23.27319 -6.42078,6.43034 -16.86178,6.43034 -23.27316,0 l -20.17576,-20.16635 c -6.42088,-6.42078 -6.42088,-16.85235 -0.009,-23.2826 6.43031,-6.42084 16.86185,-6.42084 23.27323,0 z" />
  <path
     inkscape:connector-curvature="0"
     id="path306-2"
     style="fill:#ffffff;fill-opacity:1;fill-rule:nonzero;stroke:none;stroke-width:10.21625423"
     d="m 251.00227,177.60328 c 0.57212,-39.18953 -31.61931,-72.27996 -71.03364,-73.02578 -40.34401,-0.76639 -74.63998,32.29358 -75.66159,72.9441 -0.9603,38.05547 33.12109,72.59664 72.15742,73.11766 41.45758,0.55211 73.93505,-31.27192 74.53781,-73.03598 m 15.39589,63.79029 c 8.12193,7.9381 16.23365,15.93733 24.43728,23.85508 5.3329,5.15914 6.81426,11.38076 4.70971,18.26658 -2.1965,7.21263 -7.49874,11.30937 -14.90551,12.38209 -6.11955,0.88898 -11.15616,-1.65503 -15.40613,-5.83344 -6.79379,-6.6815 -13.62848,-13.31177 -20.15667,-20.23839 -2.67665,-2.85036 -4.44409,-3.32037 -8.0402,-1.05235 -18.7877,11.86115 -39.4041,17.54131 -61.67554,17.30635 C 124.27982,285.52744 79.185251,246.11348 70.654663,195.61458 60.264748,134.13316 105.31841,79.854078 160.9766,70.843373 c 58.61068,-9.490831 114.72858,30.393387 123.84149,88.881487 4.32144,27.73709 -0.73552,53.7068 -16.03953,77.48009 -0.71511,1.1033 -1.30768,2.2884 -2.3804,4.18862" />
  <path
     sodipodi:nodetypes="ccccccccc"
     inkscape:connector-curvature="0"
     id="path995"
     d="m 399.22182,0 h 87.96606 V 27.4671 H 461.11657 V 94.75219 H 425.40448 V 27.4671 h -26.18266 z"
     style="fill:#000000;stroke-width:0.90924048" />
</svg>
